<?xml version="1.0" standalone="no"?> <!DOCTYPE svg PUBLIC "-//W3C//DTD SVG 1.0//EN" "http://www.w3.org/TR/2001/REC-SVG-20010904/DTD/svg10.dtd" > <svg xmlns="http://www.w3.org/2000/svg" width="100%" height="100%">
<defs >
<font id="dlcyrglf" horiz-adv-x="448" ><font-face
    font-family="DaxlineCyrLF-Regular"
    units-per-em="1000"
    panose-1="2 0 5 3 2 0 0 2 0 4"
    ascent="775"
    descent="-215"
    alphabetic="0" />
<missing-glyph horiz-adv-x="500" d="M0 700H500V0H0V700ZM420 650H80L250 395L420 650ZM450 95V605L280 350L450 95ZM420 50L250 305L80 50H420ZM50 95L220 350L50 605V95Z" />
<glyph unicode=" " glyph-name="space" horiz-adv-x="271" />
<glyph unicode="!" glyph-name="exclam" horiz-adv-x="275" d="M174 233H101L89 724H186L174 233ZM195 51Q195 27 179 10T138 -7Q114 -7 97 10T80 51Q80 75 97 92T138 109Q162 109 178 92T195 51Z" />
<glyph unicode="&quot;" glyph-name="quotedbl" horiz-adv-x="443" d="M350 410H298L282 710Q297 731 324 731Q350 731 365 710L350 410ZM145 410H93L78 710Q93 731 119 731Q146 731 161 710L145 410Z" />
<glyph unicode="#" glyph-name="numbersign" horiz-adv-x="763" d="M553 461L526 271H652V211H517L488 0H420L450 211H265L235 0H168L198 211H71V271H207L234 461H108V521H243L272 724H339L310 521H495L524 724H591L563 521H689V461H553ZM301 461L274 271H459L486
461H301Z" />
<glyph unicode="$" glyph-name="dollar" horiz-adv-x="584" d="M509 194Q509 107 450 55T294 -8L298 -159H225L238 -11Q217 -10 194 -7T149 1T105 12T68 27L100 100Q113 93 132 87T171 77T212 69T250 66Q329 66 375 97T422 190Q422 218 410 239T378 277T332 306T279
330Q243 345 207 363T142 406T94 463T76 541Q76 623 130 672T271 732L268 876H339L327 735Q372 733 413 722T480 697L450 628Q428 640 391 650T315 661Q243 661 203 632T163 545Q163 517 176 496T211 458T260 428T314 403Q348 389 382 372T445 330T491 272T509
194Z" />
<glyph unicode="%" glyph-name="percent" horiz-adv-x="965" d="M897 215Q897 165 887 124T857 52T807 6T738 -11Q699 -11 669 5T619 52T589 123T579 215Q579 265 589 306T619 378T669 424T738 441Q777 441 807 425T857 378T887 307T897 215ZM377 -9L320 9L587
733L645 715L377 -9ZM385 509Q385 459 375 418T346 346T296 300T227 283Q188 283 158 299T108 346T78 417T68 509Q68 559 78 600T108 672T158 718T227 735Q266 735 296 719T345 672T375 601T385 509ZM828 216Q828 293 806 337T738 382Q693 382 671 338T648 216Q648
139 670 95T738 50Q783 50 805 94T828 216ZM317 510Q317 587 295 631T227 676Q182 676 160 632T137 510Q137 433 159 389T227 344Q272 344 294 388T317 510Z" />
<glyph unicode="&amp;" glyph-name="ampersand" horiz-adv-x="714" d="M546 392V27Q513 13 456 1T336 -11Q271 -11 219 1T131 37T75 100T55 189Q55 228 67 260T101 316T153 358T219 386V388Q150 406 119 450T87 550Q87 591 102 625T147 683T218 721T313 735Q360
735 403 724T477 697L449 631Q425 645 390 653T320 662Q251 662 211 633T171 544Q171 489 209 457T306 425Q321 425 342 426T389 432L665 480L676 413L546 392ZM464 378L317 354Q140 325 140 194Q140 157 154 131T193 89T255 65T338 57Q373 57 409 63T464 76V378Z"
/>
<glyph unicode="&apos;" glyph-name="quotesingle" horiz-adv-x="239" d="M145 410H93L78 710Q93 731 119 731Q146 731 161 710L145 410Z" />
<glyph unicode="(" glyph-name="parenleft" horiz-adv-x="372" d="M271 -216Q227 -164 190 -107T125 14T82 148T66 297Q66 375 81 445T125 579T190 699T271 809L334 771Q298 724 266 671T209 559T170 435T156 297Q156 225 170 160T208 35T265 -78T334 -178L271 -216Z" />
<glyph unicode=")" glyph-name="parenright" horiz-adv-x="372" d="M306 297Q306 219 291 149T247 15T182 -106T101 -216L38 -178Q74 -131 106 -78T163 34T202 159T216 297Q216 369 202 434T164 559T107 671T38 771L101 809Q144 756 181 699T247 579T290 446T306 297Z" />
<glyph unicode="*" glyph-name="asterisk" horiz-adv-x="591" d="M531 615Q531 601 524 590L343 542L460 398Q458 380 444 366T412 352Q409 352 405 352T399 354L300 508L202 354Q200 352 196 352T189 352Q171 352 157 366T141 398L258 542L77 590Q70 601 70 615Q70
646 99 659L272 592L262 779Q276 796 300 796Q324 796 338 779L329 592L501 659Q515 653 523 641T531 615Z" />
<glyph unicode="+" glyph-name="plus" horiz-adv-x="565" d="M319 291V111H246V291H71V359H246V539H319V359H494V291H319Z" />
<glyph unicode="," glyph-name="comma" horiz-adv-x="252" d="M70 -169H9L95 79Q104 92 117 100T151 109Q171 109 180 100T192 79L70 -169Z" />
<glyph unicode="-" glyph-name="hyphen" horiz-adv-x="411" d="M70 288V362H341V288H70Z" />
<glyph unicode="." glyph-name="period" horiz-adv-x="252" d="M184 51Q184 27 167 10T126 -7Q102 -7 85 10T68 51Q68 75 85 92T126 109Q150 109 167 92T184 51Z" />
<glyph unicode="/" glyph-name="slash" horiz-adv-x="460" d="M82 -196L4 -171L341 798L419 773L82 -196Z" />
<glyph unicode="0" glyph-name="zero" horiz-adv-x="589" d="M529 362Q529 286 516 219T474 100T401 19T294 -11Q232 -11 188 19T115 100T73 218T60 362Q60 438 73 505T114 624T187 705T294 735Q356 735 400 705T473 624T515 506T529 362ZM444 363Q444 425 436
480T410 577T364 643T294 667Q253 667 225 643T179 578T153 481T145 363Q145 301 153 246T178 149T224 83T294 59Q335 59 363 83T410 148T436 245T444 363Z" />
<glyph unicode="1" glyph-name="one" horiz-adv-x="438" d="M248 0V623Q230 610 206 599T153 577T94 559T34 546L20 612Q54 618 89 628T157 653T218 685T266 724H333V0H248Z" />
<glyph unicode="2" glyph-name="two" horiz-adv-x="569" d="M20 0L328 363Q359 399 384 439T409 526Q409 589 364 626T237 664Q199 664 158 655T84 631L56 697Q96 714 143 724T242 735Q363 735 429 680T496 529Q496 498 487 470T464 416T431 367T394 323L168 71H513V0H20Z"
/>
<glyph unicode="3" glyph-name="three" horiz-adv-x="533" d="M481 203Q481 155 463 116T410 48T327 5T216 -11Q164 -11 113 -1T21 27L49 94Q81 80 126 71T216 61Q298 61 346 99T395 204Q395 240 378 267T330 313T259 341T171 350H151V413Q196 416 235 427T303
457T349 500T366 555Q366 608 327 636T220 664Q182 664 141 655T66 631L39 697Q79 714 128 724T229 735Q335 735 393 688T451 560Q451 528 438 501T404 453T357 417T305 394V392Q334 386 365 373T422 337T464 281T481 203Z" />
<glyph unicode="4" glyph-name="four" horiz-adv-x="567" d="M450 187V0H371V187H36V250L357 724H450V249H529V187H450ZM374 649Q368 636 360 622Q353 610 345 596T326 566L112 249H374V588Q374 605 375 619Q375 635 376 649H374Z" />
<glyph unicode="5" glyph-name="five" horiz-adv-x="536" d="M483 212Q483 160 464 119T409 49T324 5T215 -11Q164 -11 113 -1T24 27L52 94Q84 80 127 71T213 61Q255 61 289 71T347 101T384 147T398 210Q398 282 346 325T175 369Q151 369 124 368T66 361L108 724H470V653H181L155
431Q165 432 178 432T202 433Q342 433 412 376T483 212Z" />
<glyph unicode="6" glyph-name="six" horiz-adv-x="589" d="M533 215Q533 170 516 129T469 57T395 8T299 -11Q239 -11 194 10T119 69T75 156T60 262Q60 341 86 415T163 553T285 663T447 735L470 664Q410 648 362 622T276 562T211 488T168 404Q193 415 227 423T294
431Q348 431 392 417T467 375T516 307T533 215ZM450 215Q450 292 403 330T284 369Q252 369 214 360T149 339Q145 319 143 300T141 262Q141 219 151 182T181 117T230 74T299 58Q333 58 361 71T408 105T439 155T450 215Z" />
<glyph unicode="7" glyph-name="seven" horiz-adv-x="537" d="M179 0H84L396 653H22V724H515L179 0Z" />
<glyph unicode="8" glyph-name="eight" horiz-adv-x="583" d="M529 175Q529 133 512 99T463 40T388 2T292 -11Q240 -11 197 1T122 38T72 96T54 175Q54 216 68 247T105 302T159 344T221 376Q192 389 166 406T119 444T86 493T74 556Q74 596 90 629T134 685T203 722T292
735Q340 735 380 722T448 685T493 628T509 556Q509 521 497 494T465 445T418 406T362 376Q394 362 424 344T477 302T515 247T529 175ZM428 556Q428 605 393 638T292 672Q226 672 191 639T155 556Q155 527 166 505T196 466T240 434T292 408Q319 420 343 434T387
465T417 505T428 556ZM446 177Q446 210 434 235T400 279T351 313T292 342Q261 328 233 313T184 279T150 235T137 177Q137 120 180 87T292 53Q361 53 403 86T446 177Z" />
<glyph unicode="9" glyph-name="nine" horiz-adv-x="589" d="M529 462Q529 383 503 309T426 171T304 61T142 -11L118 60Q178 76 226 102T312 162T377 236T421 320Q396 309 362 301T295 293Q241 293 197 307T122 349T73 417T56 509Q56 554 72 595T120 667T193 716T289
735Q349 735 394 714T469 655T514 568T529 462ZM448 462Q448 505 438 542T408 607T358 650T289 666Q255 666 227 653T180 619T150 569T139 510Q139 433 186 395T305 356Q337 356 375 364T440 385Q444 405 446 424T448 462Z" />
<glyph unicode=":" glyph-name="colon" horiz-adv-x="280" d="M198 374Q198 350 181 333T140 316Q116 316 99 333T82 374Q82 398 99 415T140 432Q164 432 181 415T198 374ZM198 51Q198 27 181 10T140 -7Q116 -7 99 10T82 51Q82 75 99 92T140 109Q164 109 181 92T198 51Z" />
<glyph unicode=";" glyph-name="semicolon" horiz-adv-x="280" d="M200 374Q200 350 183 333T142 316Q118 316 101 333T84 374Q84 398 101 415T142 432Q166 432 183 415T200 374ZM80 -169H19L105 79Q114 92 127 100T161 109Q181 109 190 100T202 79L80 -169Z" />
<glyph unicode="&lt;" glyph-name="less" horiz-adv-x="565" d="M71 296V354L494 560V481L151 325L494 169V90L71 296Z" />
<glyph unicode="=" glyph-name="equal" horiz-adv-x="565" d="M71 393V460H494V393H71ZM71 190V257H494V190H71Z" />
<glyph unicode="&gt;" glyph-name="greater" horiz-adv-x="565" d="M71 90V169L414 325L71 481V560L494 354V296L71 90Z" />
<glyph unicode="?" glyph-name="question" horiz-adv-x="478" d="M429 553Q429 515 413 485T372 430T317 389T259 363L254 233H184L177 407Q208 415 237 428T290 459T327 499T341 550Q341 604 307 634T200 664Q162 664 124 655T60 632L31 697Q63 714 111 724T208
735Q315 735 372 687T429 553ZM277 51Q277 27 260 10T219 -7Q195 -7 178 10T161 51Q161 75 178 92T219 109Q243 109 260 92T277 51Z" />
<glyph unicode="@" glyph-name="at" horiz-adv-x="1033" d="M972 334Q972 244 944 179T868 72T754 10T613 -11Q468 -11 388 59T308 263Q308 323 325 371T373 454T448 506T546 524Q603 524 641 509T702 474V63Q793 85 845 150T897 334Q897 401 877 462T813 569T702
643T542 670Q446 670 371 638T243 549T164 417T136 253Q136 166 164 91T250 -40T394 -128T596 -160Q693 -160 771 -135T904 -72L940 -128Q881 -170 796 -198T596 -226Q465 -226 366 -190T198 -89T96 63T61 253Q61 353 94 441T189 594T340 697T542 735Q651 735 732
702T866 614T946 486T972 334ZM629 441Q617 449 594 455T544 462Q469 462 426 411T383 263Q383 156 442 105T608 54H629V441Z" />
<glyph unicode="A" glyph-name="A" horiz-adv-x="656" d="M546 0L472 211H184L111 0H20L279 724H378L636 0H546ZM351 570Q346 584 342 599T335 626Q331 640 329 653H327Q325 640 321 626Q315 600 305 570L204 277H452L351 570Z" />
<glyph unicode="B" glyph-name="B" horiz-adv-x="607" d="M555 192Q555 97 484 43T282 -11Q255 -11 227 -8T172 0T122 12T81 27V697Q117 714 169 724T279 735Q403 735 466 683T530 546Q530 511 519 483T490 433T450 398T407 379V377Q430 371 456 358T504 323T540
268T555 192ZM447 540Q447 600 404 633T279 667Q245 667 214 662T163 649V404H269Q295 404 314 405T348 410T375 419T399 434Q421 450 434 478T447 540ZM469 196Q469 278 402 315Q389 322 377 326T350 334T317 338T273 340H163V75Q184 67 217 62T282 57Q373 57
421 92T469 196Z" />
<glyph unicode="C" glyph-name="C" horiz-adv-x="540" d="M495 27Q470 10 430 0T340 -11Q282 -11 231 11T141 80T80 196T57 362Q57 457 79 527T140 644T230 712T340 735Q388 735 429 725T495 697L466 627Q448 640 417 649T348 659Q306 659 270 642T206 588T162
495T146 363Q146 287 162 231T205 139T269 84T348 66Q386 66 417 75T466 98L495 27Z" />
<glyph unicode="D" glyph-name="D" horiz-adv-x="636" d="M580 362Q580 269 557 199T492 83T393 13T267 -11Q209 -11 159 0T79 27V697Q112 714 161 724T267 735Q335 735 392 712T491 642T556 525T580 362ZM493 362Q493 440 476 496T428 589T358 643T271 661Q240
661 212 657T166 644V80Q180 72 208 68T271 63Q317 63 357 80T428 134T475 227T493 362Z" />
<glyph unicode="E" glyph-name="E" horiz-adv-x="504" d="M79 0V724H454V650H164V408H431V336H164V74H454V0H79Z" />
<glyph unicode="F" glyph-name="F" horiz-adv-x="490" d="M164 650V408H424V336H164V0H79V724H447V650H164Z" />
<glyph unicode="G" glyph-name="G" horiz-adv-x="644" d="M569 27Q542 11 492 0T377 -11Q309 -11 251 13T149 84T82 201T57 362Q57 453 82 522T151 639T254 711T382 735Q436 735 483 725T557 697L527 629Q505 642 468 651T384 660Q336 660 292 643T215 589T163
496T143 362Q143 285 162 229T213 135T286 81T372 63Q411 63 442 68T486 81V341H332V409H569V27Z" />
<glyph unicode="H" glyph-name="H" horiz-adv-x="639" d="M473 0V336H166V0H79V724H166V408H473V724H560V0H473Z" />
<glyph unicode="I" glyph-name="I" horiz-adv-x="248" d="M81 0V724H167V0H81Z" />
<glyph unicode="J" glyph-name="J" horiz-adv-x="248" d="M167 80Q167 -54 105 -125T-67 -219V-142Q-33 -132 -6 -115T41 -70T70 -6T81 80V724H167V80Z" />
<glyph unicode="K" glyph-name="K" horiz-adv-x="576" d="M459 0L169 371H167V0H81V724H167V389H169L453 724H554L261 380L561 0H459Z" />
<glyph unicode="L" glyph-name="L" horiz-adv-x="474" d="M81 0V724H167V74H439V0H81Z" />
<glyph unicode="M" glyph-name="M" horiz-adv-x="868" d="M734 0L666 543Q664 558 663 573T660 602Q658 617 657 631H655Q652 617 648 602Q645 589 642 574T633 543L466 0H402L235 543Q230 558 226 573T219 602Q215 617 213 631H211Q210 617 209 602Q208 589 207
574T203 543L134 0H53L149 724H252L412 204Q417 189 420 174T427 145Q431 130 433 117H435Q437 130 441 145Q444 158 447 173T456 204L616 724H719L815 0H734Z" />
<glyph unicode="N" glyph-name="N" horiz-adv-x="688" d="M528 0L197 531Q188 545 181 559T167 584Q160 597 155 610H153Q153 597 154 582Q154 569 154 554T155 522V0H79V724H164L490 203L506 175Q514 161 520 150Q527 137 532 124H534Q533 138 533 153V724H609V0H528Z" />
<glyph unicode="O" glyph-name="O" horiz-adv-x="668" d="M611 362Q611 285 594 217T542 99T455 19T334 -11Q265 -11 213 18T127 98T75 217T57 362Q57 439 74 507T126 625T213 705T334 735Q403 735 455 706T541 626T593 507T611 362ZM525 362Q525 425 513 479T477
572T417 635T334 658Q287 658 251 635T191 573T155 479T143 362Q143 299 155 245T191 152T251 89T334 66Q381 66 417 89T477 151T513 245T525 362Z" />
<glyph unicode="P" glyph-name="P" horiz-adv-x="569" d="M527 514Q527 466 509 426T456 357T368 312T249 296Q226 296 203 297T165 302V0H79V697Q117 715 165 725T269 735Q394 735 460 676T527 514ZM442 515Q442 590 398 628T270 666Q238 666 211 662T165 649V371Q180
368 201 367T246 365Q342 365 392 405T442 515Z" />
<glyph unicode="Q" glyph-name="Q" horiz-adv-x="668" d="M546 -187L419 3Q379 -11 334 -11Q265 -11 213 18T127 98T75 217T57 362Q57 439 74 507T126 625T213 705T334 735Q403 735 455 706T541 626T593 507T611 362Q611 258 580 173T486 39L612 -135L546 -187ZM525
362Q525 425 513 479T477 572T417 635T334 658Q287 658 251 635T191 573T155 479T143 362Q143 299 155 245T191 152T251 89T334 66Q381 66 417 89T477 151T513 245T525 362Z" />
<glyph unicode="R" glyph-name="R" horiz-adv-x="603" d="M475 0L362 236Q343 276 314 297T239 318H165V0H81V696Q119 714 170 724T276 735Q339 735 386 720T466 678T515 613T531 530Q531 487 519 455T484 400T431 363T364 343V341Q392 327 412 302T449 243L567
0H475ZM447 527Q447 591 406 629T277 667Q245 667 215 662T165 649V383H260Q347 383 397 415T447 527Z" />
<glyph unicode="S" glyph-name="S" horiz-adv-x="519" d="M464 197Q464 149 447 111T397 45T321 4T222 -11Q171 -11 125 -1T48 27L78 102Q103 88 140 78T219 67Q288 67 332 100T376 193Q376 220 365 241T336 278T293 306T244 330Q210 345 177 363T116 405T72 461T55
539Q55 584 71 620T117 682T187 721T278 735Q328 735 369 724T436 697L407 626Q386 638 352 649T281 660Q220 660 181 630T142 543Q142 516 154 496T186 459T231 429T282 404Q314 390 346 373T405 332T447 275T464 197Z" />
<glyph unicode="T" glyph-name="T" horiz-adv-x="512" d="M299 650V0H213V650H33V724H479V650H299Z" />
<glyph unicode="U" glyph-name="U" horiz-adv-x="628" d="M549 207Q549 156 531 116T481 48T406 5T314 -10Q264 -10 222 5T147 47T97 115T79 207V724H166V207Q166 174 177 148T209 103T256 75T314 65Q345 65 372 74T419 102T450 147T462 207V724H549V207Z" />
<glyph unicode="V" glyph-name="V" horiz-adv-x="613" d="M352 0H260L27 724H120L281 188Q286 171 290 154T298 122Q302 105 305 90H307Q310 105 314 122Q317 136 321 153T331 188L493 724H586L352 0Z" />
<glyph unicode="W" glyph-name="W" horiz-adv-x="908" d="M687 0H600L473 512Q468 529 465 546T460 578Q457 595 455 610H453Q451 595 448 578Q446 564 443 547T435 512L308 0H221L38 724H125L249 197Q253 180 256 164T262 133Q265 116 267 101H269Q271 116 274
133Q276 147 279 163T287 197L416 724H492L621 197Q625 180 628 164T634 133Q637 116 639 101H641Q643 116 646 133Q648 147 651 163T659 197L783 724H870L687 0Z" />
<glyph unicode="X" glyph-name="X" horiz-adv-x="585" d="M466 0L294 305H292L119 0H24L242 375L39 724H133L292 444H294L452 724H547L344 375L561 0H466Z" />
<glyph unicode="Y" glyph-name="Y" horiz-adv-x="593" d="M340 290V0H253V290L23 724H117L296 377H298L476 724H570L340 290Z" />
<glyph unicode="Z" glyph-name="Z" horiz-adv-x="516" d="M29 0L345 650H48V724H468L152 74H470V0H29Z" />
<glyph unicode="[" glyph-name="bracketleft" horiz-adv-x="364" d="M88 -195V785H311V718H170V-128H311V-195H88Z" />
<glyph unicode="\" glyph-name="backslash" horiz-adv-x="460" d="M378 -196L41 773L120 798L456 -171L378 -196Z" />
<glyph unicode="]" glyph-name="bracketright" horiz-adv-x="364" d="M53 -195V-128H194V718H53V785H276V-195H53Z" />
<glyph unicode="^" glyph-name="asciicircum" horiz-adv-x="583" d="M444 430L292 615L139 430L86 474L250 672Q265 692 292 692Q318 692 333 672L497 474L444 430Z" />
<glyph unicode="_" glyph-name="underscore" horiz-adv-x="586" d="M-4 -199V-137H590V-199H-4Z" />
<glyph unicode="`" glyph-name="grave" horiz-adv-x="309" d="M146 603L46 733Q49 744 59 750T83 756Q96 756 109 750T134 733L208 603H146Z" />
<glyph unicode="a" glyph-name="a" horiz-adv-x="528" d="M455 27Q426 11 375 0T269 -11Q157 -11 102 33T47 154Q47 212 75 247T150 301T256 329T376 340V381Q376 411 367 431T340 463T300 481T248 486Q229 486 209 483T169 476T132 465T101 453L79 512Q110 526
157 538T255 550Q300 550 337 541T400 510T441 456T455 374V27ZM376 282Q331 279 287 275T206 259T148 222T126 156Q126 108 161 80T267 52Q282 52 298 53T330 57T357 62T376 69V282Z" />
<glyph unicode="b" glyph-name="b" horiz-adv-x="555" d="M503 280Q503 204 484 149T431 59T349 6T244 -11Q194 -11 149 0T73 27V785H157V523Q178 533 208 540T269 547Q321 547 364 529T438 476T486 392T503 280ZM419 275Q419 372 375 426T258 481Q231 481 204
475T157 459V74Q171 67 195 62T248 57Q284 57 315 69T369 108T406 175T419 275Z" />
<glyph unicode="c" glyph-name="c" horiz-adv-x="460" d="M418 26Q393 9 359 -1T284 -11Q241 -11 200 5T126 55T73 142T53 270Q53 344 73 397T125 484T199 534T284 550Q325 550 359 540T418 513L389 452Q371 465 346 472T293 480Q264 480 237 469T187 432T152
368T139 271Q139 214 152 174T187 109T236 72T293 60Q320 60 345 68T389 89L418 26Z" />
<glyph unicode="d" glyph-name="d" horiz-adv-x="555" d="M482 27Q470 20 452 13T410 1T362 -7T309 -11Q247 -11 200 8T120 63T70 149T53 263Q53 325 69 376T117 465T195 523T302 544Q330 544 357 540T399 530V785H482V27ZM399 465Q387 470 360 474T308 478Q266
478 234 462T180 417T147 349T136 263Q136 169 180 113T308 57Q321 57 334 58T360 62T383 68T399 74V465Z" />
<glyph unicode="e" glyph-name="e" horiz-adv-x="556" d="M503 319V302Q503 293 502 283L134 230Q141 143 189 100T315 57Q356 57 395 66T462 90L488 27Q459 10 412 0T311 -11Q190 -11 122 63T53 270Q53 332 69 383T115 472T189 529T288 550Q388 550 445 489T503
319ZM423 330Q422 410 385 448T287 486Q215 486 173 433T129 288L423 330Z" />
<glyph unicode="f" glyph-name="f" horiz-adv-x="349" d="M311 718Q261 718 227 693T193 612V539H312V476H193V0H112V476H36V539H112V612Q112 657 126 689T166 743T225 775T298 786Q304 786 311 786T322 785V718H311Z" />
<glyph unicode="g" glyph-name="g" horiz-adv-x="555" d="M482 -2Q482 -109 424 -167T260 -225Q206 -225 159 -213T80 -185L106 -119Q132 -133 172 -143T254 -154Q327 -154 363 -115T400 -2V44Q378 33 347 27T284 20Q233 20 191 37T118 87T70 167T53 277Q53 348
72 399T126 484T208 534T312 550Q362 550 406 540T482 512V-2ZM400 466Q386 473 361 478T307 483Q271 483 240 472T186 437T150 374T136 280Q136 183 181 135T297 86Q324 86 353 91T400 107V466Z" />
<glyph unicode="h" glyph-name="h" horiz-adv-x="559" d="M403 0V363Q403 423 367 451T269 480Q240 480 210 472T157 450V0H73V785H157V516Q183 530 217 539T285 548Q379 548 432 503T486 369V0H403Z" />
<glyph unicode="i" glyph-name="i" horiz-adv-x="238" d="M172 699Q172 678 157 663T119 648Q97 648 82 663T66 699Q66 720 81 735T119 751Q141 751 156 736T172 699ZM78 0V539H161V0H78Z" />
<glyph unicode="j" glyph-name="j" horiz-adv-x="238" d="M161 57Q161 -10 144 -58T97 -140T29 -193T-52 -221V-150Q-26 -141 -3 -125T39 -84T67 -24T78 57V539H161V57ZM172 699Q172 678 157 663T119 648Q97 648 82 663T66 699Q66 720 81 735T119 751Q141 751
156 736T172 699Z" />
<glyph unicode="k" glyph-name="k" horiz-adv-x="520" d="M408 0L160 277H158V0H76V785H158V292H160L393 539H493L251 284L507 0H408Z" />
<glyph unicode="l" glyph-name="l" horiz-adv-x="238" d="M78 0V785H161V0H78Z" />
<glyph unicode="m" glyph-name="m" horiz-adv-x="863" d="M707 0V371Q707 424 674 453T590 482Q552 482 523 470T473 436V0H390V384Q390 430 356 456T264 482Q232 482 205 477T157 463V0H73V512Q112 529 159 539T259 550Q322 550 365 532T430 488Q455 511 500
530T606 550Q648 550 682 538T740 504T777 449T790 378V0H707Z" />
<glyph unicode="n" glyph-name="n" horiz-adv-x="559" d="M403 0V364Q403 418 371 450T272 482Q237 482 207 477T157 463V0H73V512Q112 529 161 539T271 550Q378 550 432 503T486 371V0H403Z" />
<glyph unicode="o" glyph-name="o" horiz-adv-x="564" d="M511 270Q511 210 496 159T452 70T381 11T282 -11Q226 -11 184 10T112 69T68 158T53 270Q53 330 68 381T112 469T183 528T282 550Q338 550 380 529T452 470T496 381T511 270ZM428 271Q428 317 419 356T392
423T347 466T282 482Q245 482 218 467T172 423T145 356T136 271Q136 224 145 185T172 118T217 74T282 58Q319 58 346 74T392 118T419 185T428 271Z" />
<glyph unicode="p" glyph-name="p" horiz-adv-x="555" d="M503 275Q503 213 487 162T439 73T360 15T253 -6Q225 -6 199 -2T157 8V-215H73V512Q86 519 105 526T148 538T196 546T247 550Q308 550 356 531T436 475T486 389T503 275ZM419 275Q419 369 376 426T248
483Q221 483 196 478T157 465V74Q169 69 195 65T247 60Q289 60 321 76T375 121T408 189T419 275Z" />
<glyph unicode="q" glyph-name="q" horiz-adv-x="555" d="M399 -215V16Q378 6 348 -1T286 -8Q234 -8 191 10T118 63T70 147T53 259Q53 335 72 390T125 480T207 533T312 550Q362 550 406 539T482 512V-215H399ZM399 465Q385 472 361 477T308 483Q272 483 241 471T186
432T150 365T136 265Q136 168 180 114T298 59Q325 59 352 64T399 80V465Z" />
<glyph unicode="r" glyph-name="r" horiz-adv-x="353" d="M307 476Q296 478 284 479T259 480Q231 480 204 476T157 463V0H73V512Q110 529 162 539T270 550Q285 550 298 549T323 546L307 476Z" />
<glyph unicode="s" glyph-name="s" horiz-adv-x="453" d="M403 144Q403 74 351 32T202 -11Q158 -11 115 0T42 27L72 91Q83 85 98 79T131 68T167 60T201 57Q253 57 284 80T316 144Q316 165 308 180T286 207T251 228T207 246Q178 256 151 269T103 300T69 343T56
405Q56 468 102 509T235 550Q281 550 319 540T385 512L356 453Q337 465 306 475T243 485Q194 485 168 462T141 405Q141 384 149 369T170 343T203 323T245 306Q275 295 303 283T354 252T389 208T403 144Z" />
<glyph unicode="t" glyph-name="t" horiz-adv-x="347" d="M308 3Q300 -1 285 -3T253 -6Q187 -6 149 30T111 140V476H33V539H111V669L192 696V539H308V476H192V144Q192 102 216 85T273 68Q295 68 308 73V3Z" />
<glyph unicode="u" glyph-name="u" horiz-adv-x="551" d="M478 27Q447 11 394 0T281 -11Q180 -11 127 34T73 178V539H157V177Q157 59 281 59Q318 59 348 64T395 77V539H478V27Z" />
<glyph unicode="v" glyph-name="v" horiz-adv-x="550" d="M323 0H227L30 539H121L251 156Q256 142 260 128T267 102Q271 88 274 75H276Q279 88 283 102Q286 114 290 128T299 156L428 539H520L323 0Z" />
<glyph unicode="w" glyph-name="w" horiz-adv-x="827" d="M626 0H541L431 376Q427 389 424 402T419 426Q416 438 415 450H413Q411 438 408 426Q406 415 403 402T396 376L286 0H201L37 539H121L227 158Q231 144 234 130T239 103Q242 89 244 76H246Q248 89 251 103Q253
115 256 129T264 158L374 539H454L563 158Q567 144 570 130T576 103Q579 89 582 76H584Q585 89 588 103Q590 115 593 129T600 158L707 539H790L626 0Z" />
<glyph unicode="x" glyph-name="x" horiz-adv-x="518" d="M400 0L260 222H258L118 0H23L208 280L37 539H131L258 336H260L387 539H481L310 280L495 0H400Z" />
<glyph unicode="y" glyph-name="y" horiz-adv-x="550" d="M238 -215H151L232 0L30 539H121L255 147Q264 120 269 95L274 70H276L281 95Q286 120 295 147L428 539H520L238 -215Z" />
<glyph unicode="z" glyph-name="z" horiz-adv-x="463" d="M32 0L292 471H48V539H412L153 68H420V0H32Z" />
<glyph unicode="{" glyph-name="braceleft" horiz-adv-x="366" d="M271 -195Q192 -195 150 -152T108 -31Q108 1 111 22T117 63T123 102T126 153Q126 201 103 229T42 260V330Q80 333 103 361T126 437Q126 467 123 487T117 527T111 567T108 621Q108 699 150 742T271
785H304V718H281Q238 718 214 694T189 621Q189 589 192 568T198 527T205 488T208 437Q208 380 184 345T119 296V294Q160 280 184 245T208 153Q208 123 205 103T199 63T192 23T189 -31Q189 -79 213 -103T281 -128H304V-195H271Z" />
<glyph unicode="|" glyph-name="bar" horiz-adv-x="240" d="M78 -215V785H162V-215H78Z" />
<glyph unicode="}" glyph-name="braceright" horiz-adv-x="366" d="M324 260Q286 257 263 229T239 153Q239 123 242 103T248 63T254 23T257 -31Q257 -109 215 -152T94 -195H62V-128H85Q128 -128 152 -104T176 -31Q176 1 173 22T167 63T161 102T158 153Q158 210
181 245T246 294V296Q205 310 182 345T158 437Q158 467 161 487T167 527T173 567T176 621Q176 669 152 693T85 718H62V785H94Q173 785 215 742T257 621Q257 589 254 568T248 527T242 488T239 437Q239 389 262 361T324 330V260Z" />
<glyph unicode="~" glyph-name="asciitilde" horiz-adv-x="583" d="M504 394Q492 351 461 324T383 296Q356 296 334 305T292 326T252 347T210 357Q180 357 159 340T126 295L80 329Q92 372 123 399T201 427Q228 427 250 418T292 397T331 376T374 366Q404 366 425
383T457 428L504 394Z" />
</font>
</defs>
</svg>
